<svg width="20.000000" height="20.000000" viewBox="0 0 20 20" fill="none" xmlns="http://www.w3.org/2000/svg" xmlns:xlink="http://www.w3.org/1999/xlink">
	<desc>
			Created with Pixso.
	</desc>
	<defs/>
	<path id="Vector" d="M20 10.06C20 4.5 15.52 0 10 0C4.47 0 0 4.5 0 10.06C0 15.08 3.65 19.24 8.43 20L8.43 12.96L5.89 12.96L5.89 10.06L8.43 10.06L8.43 7.84C8.43 5.32 9.93 3.92 12.21 3.92C13.3 3.92 14.45 4.12 14.45 4.12L14.45 6.6L13.19 6.6C11.94 6.6 11.56 7.37 11.56 8.17L11.56 10.06L14.33 10.06L13.89 12.96L11.56 12.96L11.56 20C16.34 19.24 20 15.08 20 10.06Z" fill="#000000" fill-opacity="1.000000" fill-rule="nonzero"/>
</svg>
