<svg width="17.441406" height="20.000000" viewBox="0 0 17.4414 20" fill="none" xmlns="http://www.w3.org/2000/svg" xmlns:xlink="http://www.w3.org/1999/xlink">
	<desc>
			Created with Pixso.
	</desc>
	<defs/>
	<path id="vector" d="M14.83 4C13.75 3.3 12.98 2.18 12.73 0.87C12.68 0.58 12.65 0.29 12.65 0L9.21 0L9.21 13.78C9.15 15.32 7.88 16.56 6.32 16.56C5.84 16.56 5.38 16.44 4.98 16.22C4.06 15.74 3.43 14.78 3.43 13.67C3.43 12.07 4.73 10.78 6.32 10.78C6.62 10.78 6.91 10.82 7.18 10.91L7.18 7.4C6.9 7.36 6.61 7.34 6.32 7.34C2.83 7.34 0 10.18 0 13.67C0 15.81 1.06 17.7 2.7 18.85C3.72 19.57 4.97 20 6.32 20C9.81 20 12.65 17.16 12.65 13.67L12.65 6.68C14 7.65 15.65 8.22 17.44 8.22L17.44 4.78C16.48 4.78 15.58 4.49 14.83 4Z" fill="#000000" fill-opacity="1.000000" fill-rule="nonzero"/>
</svg>
