<svg width="20.000000" height="14.018066" viewBox="0 0 20 14.0181" fill="none" xmlns="http://www.w3.org/2000/svg" xmlns:xlink="http://www.w3.org/1999/xlink">
	<desc>
			Created with Pixso.
	</desc>
	<defs/>
	<path id="vector" d="M17.79 0.42C18.65 0.65 19.33 1.33 19.56 2.19C19.98 3.76 20 7 20 7C20 7 20 10.26 19.57 11.82C19.34 12.68 18.66 13.36 17.8 13.59C16.25 14.01 10 14.01 10 14.01C10 14.01 3.74 14.01 2.19 13.59C1.33 13.36 0.65 12.68 0.42 11.82C0 10.25 0 7 0 7C0 7 0 3.76 0.41 2.2C0.64 1.34 1.32 0.66 2.18 0.43C3.73 0.01 9.98 0 9.98 0C9.98 0 16.23 0 17.79 0.42ZM13.18 7L7.99 10.01L7.99 4L13.18 7Z" fill="#000000" fill-opacity="1.000000" fill-rule="evenodd"/>
</svg>
